<?xml version="1.0" encoding="utf-8" standalone="no"?><!DOCTYPE svg PUBLIC "-//W3C//DTD SVG 1.1//EN" "http://www.w3.org/Graphics/SVG/1.1/DTD/svg11.dtd">
<svg preserveAspectRatio="xMinYMin meet" width="100%" height="100%" viewBox="0 0 525.000 393.750"  version="1.1" xmlns="http://www.w3.org/2000/svg" xmlns:xlink="http://www.w3.org/1999/xlink">
  <desc>Matlab Figure Converted by PLOT2SVG written by Juerg Schwizer</desc>
  <g id="topgroup">
  <rect x="0" y="0" width="525.000" height="393.750" fill="#ffffff" stroke="none" />
  <g id ="ID000000">
  <clipPath id="ID000001">
    <rect x="68.250" y="29.531" width="406.875" height="316.406"/>
  </clipPath>
      <polygon fill="#ffffff" fill-opacity="1.00" stroke="none" stroke-width="1.0pt" stroke-opacity="1.00" stroke-dasharray="none" points="68.250,345.938 475.125,345.938 475.125,29.531 68.250,29.531 "/>
      <polygon fill="#ffffff" fill-opacity="1.00" stroke="none" stroke-width="1.0pt" stroke-opacity="1.00" stroke-dasharray="none" points="68.250,29.531 475.125,29.531 475.125,29.531 68.250,29.531 "/>
      <polygon fill="#ffffff" fill-opacity="1.00" stroke="none" stroke-width="1.0pt" stroke-opacity="1.00" stroke-dasharray="none" points="68.250,345.938 68.250,345.938 68.250,29.531 68.250,29.531 "/>
    <g>
<g id="ID000002" >
  <g transform="translate(270.281,388.174)">
    <g transform="rotate(-0.0)">
      <text x="0.000" y="0.000" font-family="AvantGarde" text-anchor="middle" font-size="9pt" fill="#4c4c4c" >Frequency (Hz)</text>
    </g>
  </g>
</g>
<g id="ID000003" >
  <g transform="translate(42.000,188.673)">
    <g transform="rotate(-90.0)">
      <text x="0.000" y="0.000" font-family="AvantGarde" text-anchor="middle" font-size="9pt" fill="#4c4c4c" >Stiffness (N/m)</text>
    </g>
  </g>
</g>
<g id="ID000004" clip-path="url(#ID000001)" >
      <polygon fill="#d8ffd0" fill-opacity="1.00" stroke="#000000" stroke-width="0.5pt" stroke-opacity="1.00" stroke-dasharray="none" points="68.250,330.841 477.464,330.841 477.464,194.975 68.250,194.975 "/>
</g>
<g id="ID000005" clip-path="url(#ID000001)" >
<g>
<circle cx="378.041" cy="305.662" r="3.000" fill="#ff0000" stroke="#ff0000" stroke-width="2.0pt" />
</g>
</g>
<g id="ID000006" clip-path="url(#ID000001)" >
      <polyline fill="none" stroke="#0000ff" stroke-width="2.0pt" stroke-dasharray="none" points="104.286,58.295 124.716,87.327 140.236,107.829 152.846,133.224 163.506,152.942 172.738,165.755 180.903,174.978 188.184,184.503 194.819,198.184 200.873,207.217 206.459,214.076 211.590,220.226 216.395,225.145 220.898,230.419 225.144,234.728 229.159,239.027 232.932,242.857 236.564,247.518 239.966,250.708 243.262,253.563 246.312,257.036 249.318,260.533 252.205,262.007 254.953,263.107 257.607,264.755 260.154,266.860 262.650,268.593 265.086,270.607 267.297,273.491 269.579,274.726 271.690,274.837 273.864,275.669 275.932,277.101 277.882,278.667 279.886,279.745 281.664,281.063 283.584,281.784 285.258,282.427 287.074,283.526 288.728,284.149 290.529,285.040 292.047,286.249 293.709,286.880 295.183,287.305 296.804,288.354 298.224,289.142 299.672,289.316 301.026,289.671 302.533,290.436 303.814,290.786 305.250,291.426 306.581,292.065 307.937,292.411 309.180,292.676 310.303,293.157 311.589,293.977 312.898,294.184 314.082,294.242 315.134,294.922 316.202,295.259 317.443,295.578 318.705,295.635 319.829,296.142 320.806,296.930 321.797,297.230 322.801,297.424 323.821,297.433 324.854,297.316 325.903,297.259 326.968,297.967 328.049,298.719 328.962,299.299 329.888,299.529 330.637,299.469 331.775,299.406 332.544,299.761 333.713,299.920 334.305,300.232 335.303,300.553 336.111,300.581 337.135,300.560 337.964,300.789 338.593,301.163 339.440,301.466 340.296,301.593 341.382,301.869 342.042,301.776 342.931,301.724 343.379,301.581 344.285,301.587 344.972,302.275 345.899,302.649 346.601,302.817 347.311,303.086 348.269,302.893 348.995,302.834 349.730,303.158 350.223,303.443 350.970,303.628 351.725,303.430 352.233,303.464 353.001,303.432 353.518,303.586 354.563,303.741 355.092,303.776 355.892,303.665 356.160,303.768 356.973,304.267 357.519,304.207 358.347,304.302 358.904,304.578 359.749,304.707 360.317,304.665 360.890,304.364 361.468,304.467 362.050,304.672 362.637,304.836 363.229,304.830 363.826,305.015 364.428,305.166 364.731,304.944 365.647,304.854 365.955,305.131 366.888,305.042 367.201,305.297 367.833,305.232 368.151,305.131 368.790,305.321 369.436,305.314 370.087,305.398 370.415,305.461 371.076,305.223 371.742,305.542 372.415,305.584 372.754,305.439 373.095,305.578 373.437,305.642 374.126,305.401 374.473,305.107 375.173,305.118 375.879,305.244 376.235,305.310 376.952,305.379 376.952,305.420 377.676,305.498 378.041,305.662 378.776,305.566 379.147,305.387 379.519,304.974 379.894,304.912 380.649,305.011 381.029,304.902 381.412,304.880 381.796,305.149 382.183,305.077 382.962,304.885 383.355,304.682 383.751,304.701 384.148,304.794 384.548,304.767 384.949,304.903 385.354,304.903 385.760,304.830 386.169,304.569 386.580,304.908 386.994,305.244 387.828,304.980 388.249,304.491 388.672,304.356 388.672,304.352 389.098,304.175 389.526,304.065 389.957,304.157 390.391,304.265 390.827,303.935 391.266,303.873 391.708,303.817 392.153,303.809 392.600,303.937 393.050,303.868 393.050,303.620 393.503,303.303 393.959,303.195 394.417,303.416 394.879,303.437 394.879,303.077 395.811,303.117 395.811,303.475 396.282,303.070 396.756,302.675 397.233,302.884 397.714,302.949 397.714,302.458 398.197,301.915 398.197,302.096 398.684,302.106 399.175,302.189 399.668,302.086 399.668,301.824 400.165,301.856 400.666,301.885 401.170,301.838 401.170,301.467 401.678,300.914 402.189,301.336 402.704,301.426 402.704,301.338 402.704,300.776 403.223,300.640 403.746,300.742 404.272,300.722 404.272,300.505 404.803,300.325 404.803,300.187 405.337,299.987 405.337,300.092 406.418,300.323 406.418,300.264 406.964,300.058 406.964,299.410 407.515,299.220 407.515,299.285 407.515,299.470 408.070,299.192 408.630,299.168 409.194,299.163 409.194,298.880 409.194,298.802 409.762,298.700 410.335,298.582 410.913,298.577 410.913,298.433 410.913,298.486 410.913,298.298 411.495,297.961 412.082,297.872 412.674,297.812 412.674,297.822 412.674,298.012 412.674,298.182 413.271,297.525 413.873,297.448 414.480,297.599 414.480,297.579 414.480,297.390 414.480,297.059 415.092,296.785 415.710,296.893 415.710,297.609 415.710,297.118 415.710,297.101 416.962,297.064 416.962,296.616 417.596,296.952 416.962,296.903 417.596,296.724 417.596,296.668 418.881,296.781 418.881,296.548 418.881,296.623 418.881,296.607 418.881,296.533 419.532,296.538 419.532,296.871 420.190,296.772 420.853,296.612 420.853,296.307 421.523,296.662 420.853,296.646 421.523,296.365 421.523,295.847 422.199,296.286 422.199,296.891 422.199,296.464 422.882,296.143 422.882,295.507 423.571,295.599 423.571,296.362 423.571,296.488 423.571,296.567 424.267,296.524 424.970,296.138 424.970,296.211 424.970,296.316 424.970,295.788 425.680,295.877 425.680,295.994 426.397,296.227 426.397,296.737 426.397,296.546 426.397,296.441 427.121,296.479 427.121,296.539 427.853,295.953 427.121,295.755 427.853,295.995 427.853,296.203 428.592,296.184 428.592,296.096 429.339,296.510 429.339,296.445 429.339,296.123 429.339,296.464 430.094,296.414 430.094,296.631 430.094,296.738 430.094,296.778 430.857,297.306 430.857,297.415 431.628,297.235 431.628,296.680 432.407,296.536 431.628,296.466 432.407,296.084 431.628,296.474 432.407,296.314 432.407,296.286 433.196,296.831 433.196,297.177 433.993,296.846 433.993,296.475 433.993,296.035 433.993,296.287 433.993,296.670 434.799,296.587 434.799,296.588 435.614,296.384 435.614,295.790 435.614,296.059 435.614,296.301 435.614,296.456 435.614,296.997 436.439,296.791 436.439,296.575 436.439,296.989 436.439,297.267 437.273,297.265 438.117,296.872 437.273,296.665 437.273,297.063 437.273,297.232 438.972,297.180 438.972,297.652 438.972,297.704 438.117,297.170 438.972,296.589 438.972,296.885 439.836,297.483 439.836,297.184 439.836,296.775 439.836,297.530 439.836,297.423 440.711,297.209 440.711,297.486 440.711,297.182 440.711,296.996 441.598,297.147 441.598,297.117 441.598,297.217 441.598,297.497 441.598,296.973 442.495,296.953 442.495,297.024 442.495,297.108 442.495,296.756 442.495,297.555 443.404,297.615 443.404,297.357 443.404,297.675 444.324,297.533 444.324,297.468 444.324,297.764 444.324,297.466 444.324,297.326 445.257,297.328 444.324,297.607 445.257,296.983 445.257,296.901 445.257,297.427 445.257,297.534 445.257,297.784 446.201,297.707 446.201,297.342 447.159,297.974 447.159,297.205 447.159,297.480 446.201,297.835 447.159,297.492 447.159,297.036 448.130,297.624 447.159,297.977 448.130,297.352 448.130,297.288 448.130,297.776 448.130,297.767 448.130,297.523 449.113,297.738 449.113,297.355 449.113,297.096 449.113,297.694 449.113,298.210 450.111,297.657 450.111,296.909 450.111,297.288 450.111,297.939 450.111,298.220 451.123,297.790 450.111,297.422 451.123,297.332 450.111,297.355 451.123,297.921 451.123,298.114 452.149,297.107 452.149,296.689 452.149,297.245 452.149,298.321 452.149,297.652 452.149,297.750 452.149,298.364 452.149,297.837 453.191,296.832 453.191,296.635 454.248,297.798 453.191,298.484 454.248,298.469 453.191,298.259 454.248,297.725 453.191,297.238 454.248,296.729 454.248,297.468 455.320,297.954 455.320,298.255 454.248,298.382 454.248,298.934 454.248,298.347 456.409,298.101 456.409,297.588 456.409,298.423 455.320,298.720 455.320,297.893 456.409,297.784 456.409,297.392 456.409,296.787 456.409,296.922 456.409,296.652 457.515,296.361 457.515,295.573 457.515,295.410 457.515,295.536 457.515,296.758 458.639,296.348 457.515,295.831 457.515,296.170 457.515,296.918 458.639,296.539 458.639,296.812 458.639,296.240 458.639,296.595 459.780,296.263 459.780,297.141 459.780,297.591 458.639,297.570 459.780,296.756 459.780,296.975 459.780,298.037 459.780,297.653 459.780,296.537 460.940,296.150 460.940,296.401 460.940,296.947 460.940,297.034 460.940,296.419 462.119,296.396 460.940,296.890 460.940,297.570 460.940,298.678 462.119,298.017 462.119,296.958 462.119,295.463 462.119,296.190 462.119,296.028 462.119,296.791 463.318,296.510 463.318,296.706 463.318,296.101 462.119,296.185 463.318,296.659 463.318,296.359 464.538,297.392 463.318,297.986 464.538,298.335 463.318,296.431 464.538,295.256 463.318,297.046 464.538,298.027 464.538,297.532 464.538,297.030 464.538,296.652 464.538,295.030 465.778,295.592 465.778,297.075 465.778,297.596 465.778,296.578 465.778,293.585 465.778,295.390 465.778,296.478 465.778,294.149 465.778,294.790 465.778,296.576 467.041,296.987 467.041,298.506 467.041,294.506 467.041,295.071 467.041,297.600 467.041,297.347 467.041,295.843 467.041,296.858 468.326,296.156 467.041,295.058 468.326,295.875 468.326,295.405 468.326,295.588 468.326,296.677 468.326,294.929 468.326,293.753 468.326,295.489 468.326,296.391 469.635,294.168 469.635,293.177 469.635,294.667 469.635,296.550 469.635,294.138 469.635,292.199 469.635,295.208 469.635,298.736 469.635,297.169 469.635,293.178 470.968,293.899 470.968,298.389 470.968,296.157 469.635,292.704 470.968,293.823 470.968,293.628 470.968,294.476 470.968,293.289 470.968,290.440 472.327,292.362 470.968,294.437 472.327,294.731 472.327,293.294 472.327,290.191 472.327,291.790 470.968,294.188 472.327,294.124 472.327,296.224 473.712,295.508 473.712,293.609 472.327,294.777 472.327,294.450 472.327,296.502 473.712,296.548 473.712,294.736 473.712,292.405 473.712,291.781 473.712,291.931 473.712,292.474 473.712,292.978 473.712,293.688 475.125,294.168 475.125,291.130 475.125,289.382 473.712,291.260 475.125,289.175 475.125,289.284 475.125,294.724 475.125,293.274 475.125,293.510 475.125,294.182 475.125,293.146 475.125,294.176 476.566,292.913 475.125,290.957 476.566,292.095 476.566,293.112 476.566,289.436 476.566,284.688 476.566,288.425 476.566,288.199 476.566,289.331 476.566,291.252 478.037,288.500 476.566,289.844 476.566,292.287 476.566,288.234 478.037,285.983 478.037,283.870 478.037,286.796 478.037,286.964 478.037,282.024 478.037,285.289 478.037,286.146 478.037,286.552 478.037,286.622 478.037,284.056 478.037,286.662 479.539,287.674 479.539,287.287 479.539,284.561 478.037,286.233 479.539,285.303 479.539,283.528 479.539,280.699 479.539,286.240 479.539,286.704 481.073,285.756 479.539,290.232 479.539,288.495 479.539,290.048 479.539,292.703 481.073,294.129 481.073,287.840 481.073,283.370 481.073,287.576 479.539,285.113 481.073,282.967 481.073,283.198 481.073,288.411 481.073,286.873 481.073,284.665 482.641,287.241 482.641,293.028 481.073,289.389 481.073,285.693 481.073,279.569 482.641,283.755 482.641,288.007 482.641,285.477 482.641,285.882 482.641,286.003 482.641,285.068 482.641,286.881 482.641,285.448 482.641,283.413 482.641,280.496 482.641,280.042 484.244,286.734 484.244,287.829 484.244,286.240 482.641,286.159 484.244,284.204 484.244,280.105 484.244,277.269 482.641,289.382 484.244,293.890 484.244,289.223 485.884,289.962 484.244,289.963 484.244,286.040 484.244,282.920 484.244,283.830 485.884,286.961 484.244,283.336 485.884,282.070 484.244,285.925 485.884,290.563 485.884,289.743 485.884,286.764 485.884,285.613 485.884,283.544 485.884,287.575 485.884,284.197 485.884,278.274 485.884,284.399 485.884,286.513 485.884,282.982 487.562,286.988 487.562,289.739 487.562,290.139 485.884,290.742 485.884,287.270 485.884,283.180 487.562,285.942 487.562,287.922 487.562,285.419 487.562,282.918 487.562,279.037 487.562,284.299 487.562,286.445 487.562,283.799 489.281,284.894 489.281,286.144 489.281,280.540 487.562,276.815 487.562,284.699 487.562,288.081 489.281,282.310 489.281,279.448 489.281,289.304 487.562,291.966 489.281,285.953 489.281,281.732 489.281,286.146 489.281,283.772 489.281,280.580 489.281,282.828 489.281,284.146 489.281,281.238 491.043,284.340 489.281,283.343 491.043,277.820 489.281,274.552 491.043,280.446 489.281,275.251 491.043,275.926 491.043,284.554 491.043,288.095 491.043,287.774 489.281,286.614 491.043,280.019 491.043,277.258 491.043,280.448 491.043,280.952 491.043,282.071 492.849,282.285 491.043,277.514 491.043,274.186 491.043,281.493 492.849,279.195 492.849,280.094 492.849,284.132 491.043,280.576 491.043,279.234 491.043,285.154 492.849,281.486 492.849,281.791 492.849,283.702 492.849,282.242 492.849,279.142 492.849,275.471 492.849,281.073 492.849,281.544 492.849,269.671 492.849,271.687 494.702,273.466 494.702,270.254 494.702,273.489 492.849,278.993 492.849,273.304 492.849,274.872 494.702,285.364 494.702,283.434 494.702,280.021 492.849,281.535 494.702,283.656 494.702,276.760 494.702,275.895 492.849,280.366 494.702,282.569 494.702,279.871 496.604,286.130 494.702,283.814 494.702,273.812 494.702,278.971 494.702,278.143 496.604,270.844 494.702,276.683 496.604,273.910 494.702,276.521 496.604,273.028 494.702,270.399 496.604,276.320 494.702,280.183 496.604,283.564 496.604,276.184 496.604,278.090 496.604,277.621 496.604,276.897 496.604,278.416 496.604,277.713 496.604,278.329 496.604,280.386 496.604,279.807 496.604,282.589 498.559,284.664 496.604,280.897 496.604,275.048 496.604,267.787 498.559,267.646 498.559,270.998 496.604,268.066 496.604,271.982 496.604,273.648 498.559,272.285 498.559,265.660 498.559,271.939 498.559,278.159 498.559,273.146 498.559,269.812 498.559,271.581 498.559,263.806 498.559,270.735 498.559,280.312 498.559,267.934 498.559,259.290 498.559,275.593 498.559,281.138 498.559,268.297 498.559,262.071 500.568,269.988 500.568,279.466 500.568,271.606 498.559,261.187 498.559,270.939 500.568,270.975 500.568,263.119 500.568,261.888 498.559,264.147 500.568,269.848 500.568,273.835 500.568,269.170 498.559,261.871 500.568,258.179 500.568,265.286 500.568,277.166 500.568,278.034 500.568,261.464 502.636,259.538 500.568,264.695 500.568,270.754 500.568,261.507 500.568,253.154 502.636,258.861 500.568,268.134 502.636,277.153 500.568,281.251 502.636,278.750 500.568,273.766 502.636,269.683 500.568,268.626 502.636,264.913 502.636,267.986 502.636,265.714 502.636,264.135 500.568,249.035 502.636,263.562 502.636,278.141 502.636,265.996 502.636,257.140 502.636,260.103 504.765,257.299 502.636,275.329 502.636,274.159 502.636,267.963 504.765,272.792 502.636,270.261 502.636,264.082 502.636,262.942 504.765,257.944 504.765,275.867 502.636,285.155 502.636,277.333 502.636,270.334 504.765,269.115 504.765,264.055 504.765,258.948 504.765,256.645 504.765,255.954 504.765,265.156 504.765,271.145 502.636,246.254 502.636,257.401 502.636,256.317 504.765,251.784 504.765,261.993 506.961,266.809 506.961,269.887 506.961,270.515 504.765,271.284 504.765,273.149 504.765,261.240 504.765,261.596 504.765,266.790 504.765,259.189 504.765,256.938 506.961,247.276 506.961,254.025 506.961,262.307 504.765,253.716 504.765,257.938 504.765,271.443 506.961,265.241 506.961,264.925 506.961,265.455 504.765,257.467 506.961,261.890 506.961,258.548 506.961,243.771 506.961,251.125 506.961,259.947 506.961,263.587 506.961,255.706 506.961,239.098 506.961,245.226 506.961,263.493 506.961,270.791 509.225,261.467 506.961,205.815 506.961,251.531 506.961,265.957 506.961,255.114 509.225,256.104 506.961,253.853 509.225,263.234 506.961,242.050 509.225,254.983 506.961,267.599 509.225,265.081 506.961,237.450 509.225,209.594 506.961,218.808 509.225,241.178 509.225,245.270 509.225,255.210 509.225,262.694 506.961,266.762 509.225,279.334 509.225,283.981 509.225,259.433 509.225,226.298 509.225,246.161 509.225,261.389 509.225,243.003 509.225,216.682 511.564,253.130 509.225,259.668 509.225,231.203 509.225,254.707 511.564,258.361 509.225,257.927 509.225,267.701 509.225,262.426 511.564,263.202 511.564,224.937 509.225,243.302 509.225,260.450 509.225,262.743 511.564,256.592 511.564,262.458 511.564,265.305 511.564,261.472 509.225,260.284 509.225,248.120 509.225,227.581 511.564,208.421 511.564,217.398 511.564,222.400 511.564,212.786 511.564,223.661 "/>
<g>
</g>
</g>
<g id="ID000007" >
</g>
<g id="ID000008" >
</g>
<g id="ID000009" >
</g>
    </g>
    <g>
      <polyline fill="none" stroke="#4c4c4c" stroke-width="1.0pt" stroke-dasharray="2.0,2.0" points="475.125,345.938 475.125,345.938 "/>
      <polyline fill="none" stroke="#4c4c4c" stroke-width="1.0pt" stroke-dasharray="2.0,2.0" points="475.125,292.022 475.125,292.022 "/>
      <polyline fill="none" stroke="#4c4c4c" stroke-width="1.0pt" stroke-dasharray="2.0,2.0" points="475.125,238.107 475.125,238.107 "/>
      <polyline fill="none" stroke="#4c4c4c" stroke-width="1.0pt" stroke-dasharray="2.0,2.0" points="475.125,184.192 475.125,184.192 "/>
      <polyline fill="none" stroke="#4c4c4c" stroke-width="1.0pt" stroke-dasharray="2.0,2.0" points="475.125,130.277 475.125,130.277 "/>
      <polyline fill="none" stroke="#4c4c4c" stroke-width="1.0pt" stroke-dasharray="2.0,2.0" points="475.125,76.362 475.125,76.362 "/>
      <polyline fill="none" stroke="#000000" stroke-width="1.0pt" stroke-dasharray="2.0,2.0" points="475.125,345.938 475.125,29.531 "/>
      <polyline fill="none" stroke="#000000" stroke-width="1.0pt" stroke-dasharray="2.0,2.0" points="475.125,345.938 475.125,29.531 "/>
      <polyline fill="none" stroke="#000000" stroke-width="1.0pt" stroke-dasharray="2.0,2.0" points="475.125,345.938 475.125,29.531 "/>
      <polyline fill="none" stroke="#4c4c4c" stroke-width="1.0pt" stroke-dasharray="2.0,2.0" points="68.250,345.938 68.250,345.938 "/>
      <polyline fill="none" stroke="#4c4c4c" stroke-width="1.0pt" stroke-dasharray="2.0,2.0" points="232.503,345.938 232.503,345.938 "/>
      <polyline fill="none" stroke="#4c4c4c" stroke-width="1.0pt" stroke-dasharray="2.0,2.0" points="396.756,345.938 396.756,345.938 "/>
      <polyline fill="none" stroke="#4c4c4c" stroke-width="1.0pt" stroke-dasharray="2.0,2.0" points="117.695,345.938 117.695,345.938 "/>
      <polyline fill="none" stroke="#4c4c4c" stroke-width="1.0pt" stroke-dasharray="2.0,2.0" points="146.619,345.938 146.619,345.938 "/>
      <polyline fill="none" stroke="#4c4c4c" stroke-width="1.0pt" stroke-dasharray="2.0,2.0" points="167.140,345.938 167.140,345.938 "/>
      <polyline fill="none" stroke="#4c4c4c" stroke-width="1.0pt" stroke-dasharray="2.0,2.0" points="183.058,345.938 183.058,345.938 "/>
      <polyline fill="none" stroke="#4c4c4c" stroke-width="1.0pt" stroke-dasharray="2.0,2.0" points="196.064,345.938 196.064,345.938 "/>
      <polyline fill="none" stroke="#4c4c4c" stroke-width="1.0pt" stroke-dasharray="2.0,2.0" points="207.060,345.938 207.060,345.938 "/>
      <polyline fill="none" stroke="#4c4c4c" stroke-width="1.0pt" stroke-dasharray="2.0,2.0" points="216.585,345.938 216.585,345.938 "/>
      <polyline fill="none" stroke="#4c4c4c" stroke-width="1.0pt" stroke-dasharray="2.0,2.0" points="224.987,345.938 224.987,345.938 "/>
      <polyline fill="none" stroke="#4c4c4c" stroke-width="1.0pt" stroke-dasharray="2.0,2.0" points="281.948,345.938 281.948,345.938 "/>
      <polyline fill="none" stroke="#4c4c4c" stroke-width="1.0pt" stroke-dasharray="2.0,2.0" points="310.872,345.938 310.872,345.938 "/>
      <polyline fill="none" stroke="#4c4c4c" stroke-width="1.0pt" stroke-dasharray="2.0,2.0" points="331.393,345.938 331.393,345.938 "/>
      <polyline fill="none" stroke="#4c4c4c" stroke-width="1.0pt" stroke-dasharray="2.0,2.0" points="347.311,345.938 347.311,345.938 "/>
      <polyline fill="none" stroke="#4c4c4c" stroke-width="1.0pt" stroke-dasharray="2.0,2.0" points="360.317,345.938 360.317,345.938 "/>
      <polyline fill="none" stroke="#4c4c4c" stroke-width="1.0pt" stroke-dasharray="2.0,2.0" points="371.313,345.938 371.313,345.938 "/>
      <polyline fill="none" stroke="#4c4c4c" stroke-width="1.0pt" stroke-dasharray="2.0,2.0" points="380.839,345.938 380.839,345.938 "/>
      <polyline fill="none" stroke="#4c4c4c" stroke-width="1.0pt" stroke-dasharray="2.0,2.0" points="389.241,345.938 389.241,345.938 "/>
      <polyline fill="none" stroke="#000000" stroke-width="1.0pt" stroke-dasharray="2.0,2.0" points="68.250,345.938 475.125,345.938 "/>
      <polyline fill="none" stroke="#000000" stroke-width="1.0pt" stroke-dasharray="2.0,2.0" points="68.250,345.938 475.125,345.938 "/>
      <polyline fill="none" stroke="#000000" stroke-width="1.0pt" stroke-dasharray="2.0,2.0" points="68.250,345.938 475.125,345.938 "/>
      <polyline fill="none" stroke="#4c4c4c" stroke-width="1.0pt" stroke-dasharray="2.0,2.0" points="68.250,345.938 68.250,29.531 "/>
      <polyline fill="none" stroke="#4c4c4c" stroke-width="1.0pt" stroke-dasharray="2.0,2.0" points="232.503,345.938 232.503,29.531 "/>
      <polyline fill="none" stroke="#4c4c4c" stroke-width="1.0pt" stroke-dasharray="2.0,2.0" points="396.756,345.938 396.756,29.531 "/>
      <polyline fill="none" stroke="#4c4c4c" stroke-width="1.0pt" stroke-dasharray="2.0,2.0" points="117.695,345.938 117.695,29.531 "/>
      <polyline fill="none" stroke="#4c4c4c" stroke-width="1.0pt" stroke-dasharray="2.0,2.0" points="146.619,345.938 146.619,29.531 "/>
      <polyline fill="none" stroke="#4c4c4c" stroke-width="1.0pt" stroke-dasharray="2.0,2.0" points="167.140,345.938 167.140,29.531 "/>
      <polyline fill="none" stroke="#4c4c4c" stroke-width="1.0pt" stroke-dasharray="2.0,2.0" points="183.058,345.938 183.058,29.531 "/>
      <polyline fill="none" stroke="#4c4c4c" stroke-width="1.0pt" stroke-dasharray="2.0,2.0" points="196.064,345.938 196.064,29.531 "/>
      <polyline fill="none" stroke="#4c4c4c" stroke-width="1.0pt" stroke-dasharray="2.0,2.0" points="207.060,345.938 207.060,29.531 "/>
      <polyline fill="none" stroke="#4c4c4c" stroke-width="1.0pt" stroke-dasharray="2.0,2.0" points="216.585,345.938 216.585,29.531 "/>
      <polyline fill="none" stroke="#4c4c4c" stroke-width="1.0pt" stroke-dasharray="2.0,2.0" points="224.987,345.938 224.987,29.531 "/>
      <polyline fill="none" stroke="#4c4c4c" stroke-width="1.0pt" stroke-dasharray="2.0,2.0" points="281.948,345.938 281.948,29.531 "/>
      <polyline fill="none" stroke="#4c4c4c" stroke-width="1.0pt" stroke-dasharray="2.0,2.0" points="310.872,345.938 310.872,29.531 "/>
      <polyline fill="none" stroke="#4c4c4c" stroke-width="1.0pt" stroke-dasharray="2.0,2.0" points="331.393,345.938 331.393,29.531 "/>
      <polyline fill="none" stroke="#4c4c4c" stroke-width="1.0pt" stroke-dasharray="2.0,2.0" points="347.311,345.938 347.311,29.531 "/>
      <polyline fill="none" stroke="#4c4c4c" stroke-width="1.0pt" stroke-dasharray="2.0,2.0" points="360.317,345.938 360.317,29.531 "/>
      <polyline fill="none" stroke="#4c4c4c" stroke-width="1.0pt" stroke-dasharray="2.0,2.0" points="371.313,345.938 371.313,29.531 "/>
      <polyline fill="none" stroke="#4c4c4c" stroke-width="1.0pt" stroke-dasharray="2.0,2.0" points="380.839,345.938 380.839,29.531 "/>
      <polyline fill="none" stroke="#4c4c4c" stroke-width="1.0pt" stroke-dasharray="2.0,2.0" points="389.241,345.938 389.241,29.531 "/>
      <polyline fill="none" stroke="#4c4c4c" stroke-width="1.0pt" stroke-dasharray="2.0,2.0" points="68.250,345.938 475.125,345.938 "/>
      <polyline fill="none" stroke="#4c4c4c" stroke-width="1.0pt" stroke-dasharray="2.0,2.0" points="68.250,292.022 475.125,292.022 "/>
      <polyline fill="none" stroke="#4c4c4c" stroke-width="1.0pt" stroke-dasharray="2.0,2.0" points="68.250,238.107 475.125,238.107 "/>
      <polyline fill="none" stroke="#4c4c4c" stroke-width="1.0pt" stroke-dasharray="2.0,2.0" points="68.250,184.192 475.125,184.192 "/>
      <polyline fill="none" stroke="#4c4c4c" stroke-width="1.0pt" stroke-dasharray="2.0,2.0" points="68.250,130.277 475.125,130.277 "/>
      <polyline fill="none" stroke="#4c4c4c" stroke-width="1.0pt" stroke-dasharray="2.0,2.0" points="68.250,76.362 475.125,76.362 "/>
      <polyline fill="none" stroke="#4c4c4c" stroke-width="1.0pt" stroke-dasharray="none" points="68.250,345.938 68.250,354.075 "/>
      <polyline fill="none" stroke="#4c4c4c" stroke-width="1.0pt" stroke-dasharray="none" points="232.503,345.938 232.503,354.075 "/>
      <polyline fill="none" stroke="#4c4c4c" stroke-width="1.0pt" stroke-dasharray="none" points="396.756,345.938 396.756,354.075 "/>
      <polyline fill="none" stroke="#4c4c4c" stroke-width="1.0pt" stroke-dasharray="none" points="68.250,345.938 475.125,345.938 "/>
      <polyline fill="none" stroke="#4c4c4c" stroke-width="1.0pt" stroke-dasharray="none" points="117.695,345.938 117.695,350.006 "/>
      <polyline fill="none" stroke="#4c4c4c" stroke-width="1.0pt" stroke-dasharray="none" points="146.619,345.938 146.619,350.006 "/>
      <polyline fill="none" stroke="#4c4c4c" stroke-width="1.0pt" stroke-dasharray="none" points="167.140,345.938 167.140,350.006 "/>
      <polyline fill="none" stroke="#4c4c4c" stroke-width="1.0pt" stroke-dasharray="none" points="183.058,345.938 183.058,350.006 "/>
      <polyline fill="none" stroke="#4c4c4c" stroke-width="1.0pt" stroke-dasharray="none" points="196.064,345.938 196.064,350.006 "/>
      <polyline fill="none" stroke="#4c4c4c" stroke-width="1.0pt" stroke-dasharray="none" points="207.060,345.938 207.060,350.006 "/>
      <polyline fill="none" stroke="#4c4c4c" stroke-width="1.0pt" stroke-dasharray="none" points="216.585,345.938 216.585,350.006 "/>
      <polyline fill="none" stroke="#4c4c4c" stroke-width="1.0pt" stroke-dasharray="none" points="224.987,345.938 224.987,350.006 "/>
      <polyline fill="none" stroke="#4c4c4c" stroke-width="1.0pt" stroke-dasharray="none" points="281.948,345.938 281.948,350.006 "/>
      <polyline fill="none" stroke="#4c4c4c" stroke-width="1.0pt" stroke-dasharray="none" points="310.872,345.938 310.872,350.006 "/>
      <polyline fill="none" stroke="#4c4c4c" stroke-width="1.0pt" stroke-dasharray="none" points="331.393,345.938 331.393,350.006 "/>
      <polyline fill="none" stroke="#4c4c4c" stroke-width="1.0pt" stroke-dasharray="none" points="347.311,345.938 347.311,350.006 "/>
      <polyline fill="none" stroke="#4c4c4c" stroke-width="1.0pt" stroke-dasharray="none" points="360.317,345.938 360.317,350.006 "/>
      <polyline fill="none" stroke="#4c4c4c" stroke-width="1.0pt" stroke-dasharray="none" points="371.313,345.938 371.313,350.006 "/>
      <polyline fill="none" stroke="#4c4c4c" stroke-width="1.0pt" stroke-dasharray="none" points="380.839,345.938 380.839,350.006 "/>
      <polyline fill="none" stroke="#4c4c4c" stroke-width="1.0pt" stroke-dasharray="none" points="389.241,345.938 389.241,350.006 "/>
  <g transform="translate(68.250,370.444)">
    <g transform="rotate(-0.0)">
      <text x="0.000" y="0.000" font-family="Helvetica" text-anchor="middle" font-size="8pt" fill="#4c4c4c" >10<tspan font-size="5.3pt" dy="-5.3pt">-1</tspan></text>
    </g>
  </g>
  <g transform="translate(232.503,370.444)">
    <g transform="rotate(-0.0)">
      <text x="0.000" y="0.000" font-family="Helvetica" text-anchor="middle" font-size="8pt" fill="#4c4c4c" >10<tspan font-size="5.3pt" dy="-5.3pt">0</tspan></text>
    </g>
  </g>
  <g transform="translate(396.756,370.444)">
    <g transform="rotate(-0.0)">
      <text x="0.000" y="0.000" font-family="Helvetica" text-anchor="middle" font-size="8pt" fill="#4c4c4c" >10<tspan font-size="5.3pt" dy="-5.3pt">1</tspan></text>
    </g>
  </g>
      <polyline fill="none" stroke="#4c4c4c" stroke-width="1.0pt" stroke-dasharray="none" points="68.250,345.938 60.112,345.938 "/>
      <polyline fill="none" stroke="#4c4c4c" stroke-width="1.0pt" stroke-dasharray="none" points="68.250,292.022 60.112,292.022 "/>
      <polyline fill="none" stroke="#4c4c4c" stroke-width="1.0pt" stroke-dasharray="none" points="68.250,238.107 60.112,238.107 "/>
      <polyline fill="none" stroke="#4c4c4c" stroke-width="1.0pt" stroke-dasharray="none" points="68.250,184.192 60.112,184.192 "/>
      <polyline fill="none" stroke="#4c4c4c" stroke-width="1.0pt" stroke-dasharray="none" points="68.250,130.277 60.112,130.277 "/>
      <polyline fill="none" stroke="#4c4c4c" stroke-width="1.0pt" stroke-dasharray="none" points="68.250,76.362 60.112,76.362 "/>
      <polyline fill="none" stroke="#4c4c4c" stroke-width="1.0pt" stroke-dasharray="none" points="68.250,345.938 68.250,29.531 "/>
  <g transform="translate(51.975,349.313)">
    <g transform="rotate(-0.0)">
      <text x="0.000" y="0.000" font-family="Helvetica" text-anchor="end" font-size="8pt" fill="#4c4c4c" >0</text>
    </g>
  </g>
  <g transform="translate(51.975,295.397)">
    <g transform="rotate(-0.0)">
      <text x="0.000" y="0.000" font-family="Helvetica" text-anchor="end" font-size="8pt" fill="#4c4c4c" >1</text>
    </g>
  </g>
  <g transform="translate(51.975,241.482)">
    <g transform="rotate(-0.0)">
      <text x="0.000" y="0.000" font-family="Helvetica" text-anchor="end" font-size="8pt" fill="#4c4c4c" >2</text>
    </g>
  </g>
  <g transform="translate(51.975,187.567)">
    <g transform="rotate(-0.0)">
      <text x="0.000" y="0.000" font-family="Helvetica" text-anchor="end" font-size="8pt" fill="#4c4c4c" >3</text>
    </g>
  </g>
  <g transform="translate(51.975,133.652)">
    <g transform="rotate(-0.0)">
      <text x="0.000" y="0.000" font-family="Helvetica" text-anchor="end" font-size="8pt" fill="#4c4c4c" >4</text>
    </g>
  </g>
  <g transform="translate(51.975,79.737)">
    <g transform="rotate(-0.0)">
      <text x="0.000" y="0.000" font-family="Helvetica" text-anchor="end" font-size="8pt" fill="#4c4c4c" >5</text>
    </g>
  </g>
      <polyline fill="none" stroke="#000000" stroke-width="1.0pt" stroke-dasharray="none" points="68.250,345.938 68.250,352.266 "/>
      <polyline fill="none" stroke="#000000" stroke-width="1.0pt" stroke-dasharray="none" points="68.250,345.938 68.250,352.266 "/>
      <polyline fill="none" stroke="#000000" stroke-width="1.0pt" stroke-dasharray="none" points="68.250,345.938 68.250,352.266 "/>
      <polyline fill="none" stroke="#000000" stroke-width="1.0pt" stroke-dasharray="none" points="68.250,345.938 68.250,345.938 "/>
  <g transform="translate(68.250,23.656)">
    <g transform="rotate(-0.0)">
      <text x="0.000" y="0.000" font-family="Helvetica" text-anchor="start" font-size="8pt" fill="#4c4c4c" >&#215; 10<tspan font-size="5.6pt" dy="-5.6pt">8</tspan></text>
    </g>
  </g>
    </g>
  </g>
  <g id ="ID000010">
  <clipPath id="ID000011">
    <rect x="201.406" y="36.719" width="268.125" height="35.625"/>
  </clipPath>
      <polygon fill="#ffffff" fill-opacity="1.00" stroke="none" stroke-width="1.0pt" stroke-opacity="1.00" stroke-dasharray="none" points="201.406,72.344 469.531,72.344 469.531,36.719 201.406,36.719 "/>
      <polygon fill="#ffffff" fill-opacity="1.00" stroke="none" stroke-width="1.0pt" stroke-opacity="1.00" stroke-dasharray="none" points="201.406,36.719 469.531,36.719 469.531,36.719 201.406,36.719 "/>
      <polygon fill="#ffffff" fill-opacity="1.00" stroke="none" stroke-width="1.0pt" stroke-opacity="1.00" stroke-dasharray="none" points="201.406,72.344 201.406,72.344 201.406,36.719 201.406,36.719 "/>
    <g>
<g id="ID000012" >
  <g transform="translate(250.625,50.875)">
    <g transform="rotate(-0.0)">
      <text x="0.000" y="0.000" font-family="Helvetica" text-anchor="start" font-size="8pt" fill="#000000" >Minimum stiffness = 7.4702e+07 N/m at 7.69 Hz</text>
    </g>
  </g>
</g>
<g id="ID000013" clip-path="url(#ID000011)" >
<g>
</g>
</g>
<g id="ID000014" clip-path="url(#ID000011)" >
<g>
<circle cx="227.656" cy="46.719" r="3.000" fill="#ff0000" stroke="#ff0000" stroke-width="2.0pt" />
</g>
</g>
<g id="ID000015" >
  <g transform="translate(250.625,66.813)">
    <g transform="rotate(-0.0)">
      <text x="0.000" y="0.000" font-family="Helvetica" text-anchor="start" font-size="8pt" fill="#000000" >Data</text>
    </g>
  </g>
</g>
<g id="ID000016" clip-path="url(#ID000011)" >
      <polyline fill="none" stroke="#0000ff" stroke-width="2.0pt" stroke-dasharray="none" points="208.906,62.344 246.406,62.344 "/>
<g>
</g>
</g>
<g id="ID000017" clip-path="url(#ID000011)" >
<g>
</g>
</g>
<g id="ID000018" >
</g>
<g id="ID000019" >
</g>
<g id="ID000020" >
</g>
    </g>
    <g>
      <polyline fill="none" stroke="#000000" stroke-width="1.0pt" stroke-dasharray="none" points="201.406,72.344 469.531,72.344 "/>
      <polyline fill="none" stroke="#000000" stroke-width="1.0pt" stroke-dasharray="none" points="201.406,36.719 469.531,36.719 "/>
      <polyline fill="none" stroke="#000000" stroke-width="1.0pt" stroke-dasharray="none" points="201.406,72.344 201.406,36.719 "/>
      <polyline fill="none" stroke="#000000" stroke-width="1.0pt" stroke-dasharray="none" points="469.531,72.344 469.531,36.719 "/>
      <polyline fill="none" stroke="#000000" stroke-width="1.0pt" stroke-dasharray="none" points="201.406,72.344 201.406,71.988 "/>
      <polyline fill="none" stroke="#000000" stroke-width="1.0pt" stroke-dasharray="none" points="201.406,72.344 201.406,72.344 "/>
    </g>
  </g>
  </g>
</svg>
